# xmcd
# 
# Track frame offsets:
#     150
#     25516
#     37196
#     88264
#     114657
#     137316
#     163038
#     184479
#     212118
# 
# Disc length: 3061
# 
# Revision: 1
# Processed by: cddbd v1.5.2PL0 Copyright (c) Steve Scherf et al.
# Submitted via: fre:ac v1.0.31
# 
DISCID=7b0bf309
DTITLE=Steve Lehman - Manifold
DYEAR=2007
DGENRE=Jazz
TTITLE0=Interface D
TTITLE1=Is This Rhythm?
TTITLE2=Dusk
TTITLE3=Interface F
TTITLE4=Interface C
TTITLE5=Cloak and Dagger
TTITLE6=Interface A
TTITLE7=Berceuse
TTITLE8=For Evan Parker
EXTD=YEAR: 2007
EXTT0=
EXTT1=
EXTT2=
EXTT3=
EXTT4=
EXTT5=
EXTT6=
EXTT7=
EXTT8=
PLAYORDER=
